<svg width="50" height="51" viewBox="0 0 50 51" fill="none" xmlns="http://www.w3.org/2000/svg">
<g id="design services ico 3" clip-path="url(#clip0_1633_2020)">
<g id="Group">
<g id="Artboard8">
<g id="Group_2">
<path id="Vector" fill-rule="evenodd" clip-rule="evenodd" d="M0.0368958 34.9666V4.81473C0.0368958 4.23529 0.506428 3.76597 1.08728 3.76597H45.1159C46.297 2.90598 47.9573 3.00877 49.0222 4.07274C49.5885 4.63854 49.9031 5.40518 49.9031 6.20486C49.9031 6.84566 49.6998 7.46548 49.3271 7.97727V34.9666C49.3271 35.5922 49.0802 36.1926 48.6397 36.6352C48.1944 37.0773 47.5942 37.3263 46.9698 37.3263H30.977V43.0945H37.7923C39.8205 43.0945 41.4614 44.7379 41.4614 46.7652L41.4663 47.8139H7.9123L7.90261 46.7647C7.90261 45.7914 8.28986 44.8575 8.9772 44.1695C9.66454 43.481 10.5987 43.0945 11.5717 43.0945H18.3919V37.3263H2.3942C1.76978 37.3263 1.16955 37.0773 0.729069 36.6352C0.283749 36.1926 0.0368958 35.5922 0.0368958 34.9666ZM42.9668 5.86349C33.6973 5.86349 2.1328 5.86349 2.1328 5.86349V29.985H47.2312V10.1272L34.8445 22.5136C34.7767 24.2053 33.6683 25.6877 32.0516 26.2268C30.0428 26.8964 28.2276 26.8628 27.5209 26.8157C27.4531 26.8309 27.3805 26.8387 27.3031 26.8387H6.32947C5.74862 26.8387 5.27908 26.3684 5.27908 25.79C5.27908 25.211 5.74862 24.7412 6.32947 24.7412H26.2576C26.2673 23.8377 26.3834 22.49 26.8675 21.0428C27.4047 19.4256 28.8908 18.3181 30.5801 18.2494L42.9668 5.86349ZM37.0808 17.3123L47.5361 6.85353C47.7104 6.68153 47.8072 6.44818 47.8072 6.20486C47.8072 5.96155 47.7104 5.72821 47.5361 5.55621C47.1779 5.19754 46.5971 5.19754 46.2389 5.55621L35.7836 16.0145L37.0808 17.3123ZM2.3942 35.2288H46.9698C47.0376 35.2288 47.1054 35.201 47.1538 35.1517C47.2022 35.1024 47.2312 35.0358 47.2312 34.9666V32.0825H2.1328V34.9666C2.1328 35.0358 2.16187 35.1024 2.21027 35.1517C2.25868 35.201 2.32643 35.2288 2.3942 35.2288ZM28.8762 43.0945V37.3263H20.4878V43.0945H28.8762ZM37.7923 45.192H11.5717C11.1554 45.192 10.7536 45.3578 10.4584 45.6525C10.439 45.6734 10.4196 45.6944 10.4003 45.7164H38.9637C38.6782 45.3945 38.257 45.192 37.7923 45.192ZM34.2249 20.1665L35.5948 18.7953L34.2975 17.4974L32.9277 18.8692C33.1891 19.0312 33.4311 19.2242 33.6489 19.4439C33.8716 19.6642 34.0652 19.9069 34.2249 20.1665ZM30.7592 20.3437H30.7495C29.8879 20.3437 29.128 20.8923 28.8569 21.7061C28.46 22.9012 28.3632 24.0113 28.3535 24.7412C29.0844 24.7312 30.1929 24.6353 31.3884 24.2367C32.2016 23.9656 32.7486 23.2042 32.7486 22.3469V22.3364C32.7486 21.8078 32.5405 21.3007 32.1677 20.9274C31.795 20.5535 31.2868 20.3437 30.7592 20.3437Z" fill="#121212"/>
</g>
</g>
</g>
</g>
<defs>
<clipPath id="clip0_1633_2020">
<rect width="50" height="50" fill="white" transform="translate(0 0.501709)"/>
</clipPath>
</defs>
</svg>
