<svg width="32" height="32" viewBox="0 0 32 32" fill="none" xmlns="http://www.w3.org/2000/svg">
<path d="M16.0352 32.0094H15.9648C7.1619 32.0094 0 24.8454 0 16.0399V15.9695C0 7.164 7.1619 0 15.9648 0H16.0352C24.8381 0 32 7.164 32 15.9695V16.0399C32 24.8454 24.8381 32.0094 16.0352 32.0094ZM15.9648 1.08349C7.75873 1.08349 1.08317 7.761 1.08317 15.9695V16.0399C1.08317 24.2484 7.75873 30.9259 15.9648 30.9259H16.0352C24.2413 30.9259 30.9168 24.2484 30.9168 16.0399V15.9695C30.9168 7.761 24.2413 1.08349 16.0352 1.08349H15.9648Z" fill="#0B0B0B"/>
<path d="M20.7838 6.83356H11.2173C8.57434 6.83356 6.42426 8.98428 6.42426 11.628V20.3825C6.42426 23.0262 8.57434 25.177 11.2173 25.177H20.7838C23.4267 25.177 25.5768 23.0262 25.5768 20.3825V11.628C25.5768 8.98428 23.4267 6.83356 20.7838 6.83356ZM8.11508 11.628C8.11508 9.91716 9.50695 8.52486 11.2173 8.52486H20.7838C22.4941 8.52486 23.886 9.91716 23.886 11.628V20.3825C23.886 22.0934 22.4941 23.4856 20.7838 23.4856H11.2173C9.50695 23.4856 8.11508 22.0934 8.11508 20.3825V11.628Z" fill="#0B0B0B"/>
<path d="M16.0006 20.4638C18.4583 20.4638 20.4589 18.4637 20.4589 16.0042C20.4589 13.5447 18.4594 11.5446 16.0006 11.5446C13.5418 11.5446 11.5423 13.5447 11.5423 16.0042C11.5423 18.4637 13.5418 20.4638 16.0006 20.4638ZM16.0006 13.237C17.5268 13.237 18.7681 14.4787 18.7681 16.0053C18.7681 17.5319 17.5268 18.7736 16.0006 18.7736C14.4744 18.7736 13.2331 17.5319 13.2331 16.0053C13.2331 14.4787 14.4744 13.237 16.0006 13.237Z" fill="#0B0B0B"/>
<path d="M20.8716 12.2651C21.5334 12.2651 22.0728 11.7266 22.0728 11.0635C22.0728 10.4004 21.5345 9.86192 20.8716 9.86192C20.2087 9.86192 19.6703 10.4004 19.6703 11.0635C19.6703 11.7266 20.2087 12.2651 20.8716 12.2651Z" fill="#0B0B0B"/>
</svg>
