<svg width="32" height="32" viewBox="0 0 32 32" fill="none" xmlns="http://www.w3.org/2000/svg">
<path d="M16.0361 0C24.8526 0 32 7.14972 32 15.9688V16.041C32 24.86 24.8526 32.0098 16.0361 32.0098H15.9639C7.14743 32.0098 0 24.86 0 16.041V15.9688C0 7.14972 7.14743 0 15.9639 0H16.0361ZM10.9609 6.53906C8.22551 6.53906 6.00016 8.76478 6 11.501V20.5625C6 23.2988 8.22542 25.5254 10.9609 25.5254H20.8623C23.5978 25.5254 25.8232 23.2988 25.8232 20.5625V11.501C25.8231 8.76478 23.5977 6.53906 20.8623 6.53906H10.9609ZM20.8623 8.28906C22.6324 8.28906 24.0731 9.73035 24.0732 11.501V20.5625C24.0732 22.3333 22.6325 23.7744 20.8623 23.7744H10.9609C9.1907 23.7744 7.75 22.3333 7.75 20.5625V11.501C7.75016 9.73035 9.19079 8.28906 10.9609 8.28906H20.8623ZM15.9121 11.415C13.3673 11.415 11.2971 13.4848 11.2969 16.0303C11.2969 18.576 13.3672 20.6465 15.9121 20.6465C18.4558 20.6463 20.5264 18.5759 20.5264 16.0303C20.5261 13.4849 18.4567 11.4152 15.9121 11.415ZM15.9121 13.167C17.4916 13.1672 18.7764 14.4522 18.7764 16.0322C18.7762 17.6121 17.4915 18.8973 15.9121 18.8975C14.3326 18.8975 13.048 17.6122 13.0479 16.0322C13.0479 14.4521 14.3325 13.167 15.9121 13.167ZM20.9531 9.67285C20.2672 9.67303 19.71 10.2308 19.71 10.917C19.71 11.6032 20.2672 12.16 20.9531 12.1602C21.6381 12.1602 22.1972 11.6033 22.1973 10.917C22.1973 10.2307 21.6392 9.67285 20.9531 9.67285Z" fill="#0B0B0B"/>
</svg>
