<svg width="51" height="51" viewBox="0 0 51 51" fill="none" xmlns="http://www.w3.org/2000/svg">
<g id="lib of mat ico 4" clip-path="url(#clip0_1633_2034)">
<g id="Group">
<g id="Artboard8">
<g id="Group_2">
<path id="Vector" fill-rule="evenodd" clip-rule="evenodd" d="M6.64834 30.5271C6.05519 30.299 5.09733 29.9254 3.8568 29.4288C3.27871 29.1961 2.75785 28.8731 2.42983 28.3986C2.02488 27.8193 1.91324 27.1391 2.07768 26.5168L7.50649 6.25626C7.67599 5.63268 8.11438 5.101 8.75055 4.80079C9.30974 4.53749 9.98299 4.47707 10.6263 4.64941L42.0339 13.0647C42.0978 13.0802 42.1576 13.101 42.2135 13.1273C42.3062 13.1693 42.3913 13.2236 42.4682 13.2876C42.5875 13.3882 42.6815 13.5161 42.7431 13.6651C42.7682 13.7181 42.7883 13.773 42.8035 13.8297L48.9059 36.6041C49.0557 37.1633 48.7214 37.7393 48.1643 37.8886L16.5071 46.3711C15.8993 46.534 15.2574 46.4481 14.7124 46.1365C14.1724 45.823 13.779 45.3068 13.6171 44.7025L12.0163 38.7282L9.24777 38.729C8.58011 38.7293 7.94729 38.4949 7.47668 38.0961C6.93656 37.6404 6.64936 37.0143 6.65021 36.3691L6.64834 30.5271ZM11.4542 36.6307L8.74934 26.5359L8.74583 29.7849C8.74909 29.797 8.74732 29.8105 8.74565 29.8246L8.74581 36.3695C8.7483 36.4193 8.78627 36.4596 8.82847 36.4956C8.94018 36.5883 9.09275 36.631 9.25009 36.6307L11.4542 36.6307ZM34.4338 17.138L10.3997 23.578C10.3288 23.597 10.2751 23.6396 10.2372 23.7008C10.2043 23.7606 10.1963 23.8317 10.2143 23.8991L15.6431 44.1597C15.661 44.2265 15.7036 44.2841 15.7619 44.3195C15.8253 44.3535 15.8933 44.3641 15.9642 44.3451L39.9984 37.9051L34.4338 17.138ZM6.64878 17.5619L4.10668 27.0589C4.09275 27.1083 4.12196 27.1564 4.15073 27.2029C4.25643 27.3543 4.45523 27.4075 4.63813 27.4822C5.43453 27.8003 6.1141 28.0672 6.64832 28.278L6.64878 17.5619ZM33.8173 13.034L10.0834 6.67542C9.93673 6.63438 9.77459 6.63711 9.64448 6.69858C9.59641 6.72177 9.54942 6.74902 9.5355 6.79836L7.74958 13.4646C8.17567 13.1909 8.70358 13.0337 9.2466 13.0342L33.8173 13.034ZM8.7476 22.2139C9.04299 21.8981 9.42631 21.6673 9.85685 21.5519L33.815 15.1323L9.24933 15.1312C9.09199 15.1315 8.94056 15.1743 8.82981 15.2675C8.78526 15.3038 8.74689 15.3429 8.74952 15.3932L8.7476 22.2139ZM42.0244 37.3623L46.6084 36.134L41.0438 15.3669L36.4599 16.5951L42.0244 37.3623ZM39.4962 16.9053C40.2401 16.9058 40.8474 17.5107 40.8462 18.2559C40.8451 19.0015 40.2417 19.6062 39.4978 19.6058C38.7539 19.6053 38.1468 19.0009 38.1479 18.2552C38.1491 17.5101 38.7525 16.9054 39.4962 16.9053Z" fill="#121212"/>
</g>
</g>
</g>
</g>
<defs>
<clipPath id="clip0_1633_2034">
<rect width="50" height="50" fill="white" transform="translate(0.5 0.501709)"/>
</clipPath>
</defs>
</svg>
