<svg width="32" height="32" viewBox="0 0 32 32" fill="none" xmlns="http://www.w3.org/2000/svg">
<path d="M16.0352 32.0094H15.9648C7.16191 32.0094 0 24.8454 0 16.0399V15.9695C0 7.16402 7.16191 0 15.9648 0H16.0352C24.8381 0 32 7.16402 32 15.9695V16.0399C32 24.8454 24.8381 32.0094 16.0352 32.0094ZM15.9648 1.08349C7.75873 1.08349 1.08317 7.76102 1.08317 15.9695V16.0399C1.08317 24.2484 7.75873 30.9259 15.9648 30.9259H16.0352C24.2413 30.9259 30.9168 24.2484 30.9168 16.0399V15.9695C30.9168 7.76102 24.2413 1.08349 16.0352 1.08349H15.9648Z" fill="#0B0B0B"/>
<path d="M7.91471 10.8208C7.50744 10.4426 7.3049 9.97458 7.3049 9.41767C7.3049 8.86075 7.50852 8.37209 7.91471 7.99287C8.32198 7.61473 8.84624 7.42512 9.48855 7.42512C10.1309 7.42512 10.6346 7.61473 11.0407 7.99287C11.448 8.371 11.6505 8.84667 11.6505 9.41767C11.6505 9.98866 11.4469 10.4426 11.0407 10.8208C10.6335 11.1989 10.1168 11.3885 9.48855 11.3885C8.86032 11.3885 8.32198 11.1989 7.91471 10.8208ZM11.3083 12.9899V24.5832H7.64609V12.9899H11.3083Z" fill="#0B0B0B"/>
<path d="M23.4993 14.1351C24.2976 15.0019 24.6962 16.1916 24.6962 17.7063V24.3784H21.2182V18.1765C21.2182 17.4127 21.0199 16.8189 20.6246 16.3964C20.2292 15.9738 19.6963 15.7614 19.0291 15.7614C18.3619 15.7614 17.8289 15.9727 17.4336 16.3964C17.0382 16.8189 16.84 17.4127 16.84 18.1765V24.3784H13.3414V12.9574H16.84V14.4721C17.1942 13.9672 17.6719 13.5685 18.272 13.2748C18.872 12.9812 19.5468 12.8349 20.2975 12.8349C21.6341 12.8349 22.7021 13.2683 23.4993 14.1351Z" fill="#0B0B0B"/>
</svg>
