<svg width="32" height="32" viewBox="0 0 32 32" fill="none" xmlns="http://www.w3.org/2000/svg">
<path d="M16.0361 0C24.8524 0 31.9997 7.14897 32 15.9678V16.041C32 24.86 24.8526 32.0098 16.0361 32.0098H15.9639C7.14744 32.0098 0 24.86 0 16.041V15.9678C0.000262274 7.14897 7.1476 0 15.9639 0H16.0361ZM7.35352 12.8848V24.8838H11.1436V12.8848H7.35352ZM20.4482 12.7236C19.6713 12.7236 18.9727 12.8758 18.3516 13.1797C17.7306 13.4836 17.2357 13.8955 16.8691 14.418V12.8506H13.248V24.6719H16.8691V18.2529C16.8691 17.4624 17.0743 16.8475 17.4834 16.4102C17.8925 15.9718 18.4444 15.753 19.1348 15.7529C19.8253 15.7529 20.3769 15.9729 20.7861 16.4102C21.1953 16.8475 21.4014 17.4623 21.4014 18.2529V24.6719H25.001V17.7656C25.0009 16.198 24.5879 14.9664 23.7617 14.0693V14.0684C22.9366 13.1725 21.8315 12.7237 20.4482 12.7236ZM9.26074 7.125C8.59611 7.125 8.05332 7.32075 7.63184 7.71191C7.21151 8.10434 7.00009 8.61025 7 9.18652C7 9.76294 7.21031 10.2473 7.63184 10.6387C8.05338 11.0301 8.6105 11.2266 9.26074 11.2266C9.91084 11.2265 10.4457 11.03 10.8672 10.6387C11.2874 10.2474 11.498 9.77736 11.498 9.18652C11.498 8.59568 11.2886 8.10322 10.8672 7.71191C10.4468 7.32061 9.92539 7.12507 9.26074 7.125Z" fill="#0B0B0B"/>
</svg>
