<svg width="229" height="40" viewBox="0 0 229 40" fill="none" xmlns="http://www.w3.org/2000/svg">
<path d="M121.324 0.471538C121.324 0.344183 121.41 0.258301 121.537 0.258301H122.59C122.719 0.258301 122.805 0.344183 122.805 0.471538V6.62659C122.805 6.71101 122.848 6.75395 122.933 6.75395H129.716C129.802 6.75395 129.845 6.71101 129.845 6.62659V0.471538C129.845 0.344183 129.931 0.258301 130.058 0.258301H131.111C131.24 0.258301 131.326 0.344183 131.326 0.471538V14.6134C131.326 14.7423 131.24 14.8284 131.111 14.8284H130.058C129.931 14.8284 129.845 14.7423 129.845 14.6134V8.28808C129.845 8.2022 129.802 8.15896 129.716 8.15896H122.933C122.848 8.15896 122.805 8.2022 122.805 8.28808V14.6134C122.805 14.7423 122.719 14.8284 122.59 14.8284H121.537C121.41 14.8284 121.324 14.7423 121.324 14.6134V0.471538Z" fill="#121212"/>
<path d="M199.497 0.471538C199.497 0.344183 199.583 0.258301 199.71 0.258301H202.73C202.859 0.258301 202.945 0.344183 202.945 0.471538V14.6134C202.945 14.7423 202.859 14.8284 202.73 14.8284H199.71C199.583 14.8284 199.497 14.7423 199.497 14.6134V0.471538Z" fill="#121212"/>
<path d="M12.1335 14.8284C11.982 14.8284 11.8979 14.7649 11.8546 14.6134L9.5611 6.4713H9.51815L7.20402 14.6134C7.16078 14.7649 7.07666 14.8284 6.92519 14.8284H4.24781C4.09811 14.8284 4.01222 14.7649 3.96899 14.6134L0.00483393 0.471538C-0.0157545 0.344184 0.0271868 0.258301 0.176894 0.258301H3.69046C3.86252 0.258301 3.94663 0.344184 3.96899 0.471538L5.85489 8.95779H5.89783L8.16902 0.471538C8.21226 0.321831 8.29638 0.258301 8.44785 0.258301H10.6538C10.8035 0.258301 10.8893 0.321831 10.9326 0.471538L13.2691 8.95779H13.3102L15.1326 0.471538C15.1532 0.344184 15.2391 0.258301 15.3888 0.258301H18.9041C19.0315 0.258301 19.0968 0.344184 19.0538 0.471538L15.1117 14.6134C15.0688 14.7649 14.9829 14.8284 14.8108 14.8284H12.1335Z" fill="#121212"/>
<path d="M33.0215 0.471538C33.0215 0.344183 33.1077 0.258301 33.2347 0.258301H36.578C36.7071 0.258301 36.793 0.344183 36.793 0.471538V14.6134C36.793 14.7423 36.7071 14.8284 36.578 14.8284H33.2347C33.1077 14.8284 33.0215 14.7423 33.0215 14.6134V0.471538Z" fill="#121212"/>
<path d="M50.9466 13.0063C50.8398 12.9219 50.8175 12.7722 50.9243 12.6639L52.8531 10.3927C52.939 10.286 53.0681 10.286 53.1525 10.3722C54.0316 11.1427 55.4031 11.8295 56.8605 11.8295C58.2093 11.8295 58.9164 11.2719 58.9164 10.458C58.9164 9.83509 58.5105 9.4292 57.0737 9.23655L56.3028 9.12802C53.1525 8.6789 51.4387 7.26448 51.4387 4.54416C51.4387 1.82237 53.5602 0 56.8605 0C58.8734 0 60.7593 0.622947 62.067 1.60707C62.1738 1.69325 62.1961 1.80149 62.1099 1.92884L60.5029 4.26563C60.417 4.3721 60.3102 4.39298 60.2035 4.32916C59.1746 3.64268 58.082 3.2365 56.924 3.2365C55.8537 3.2365 55.3169 3.75121 55.3169 4.45827C55.3169 5.10004 55.7884 5.5077 57.1823 5.67976L57.9529 5.78652C61.1446 6.23564 62.7741 7.65007 62.7741 10.4151C62.7741 13.1148 60.7164 15.0848 56.8173 15.0848C54.4396 15.0848 52.0393 14.0784 50.9466 13.0063Z" fill="#121212"/>
<path d="M77.5439 0.471538C77.5439 0.344183 77.6298 0.258301 77.7572 0.258301H87.2929C87.422 0.258301 87.5082 0.344183 87.5082 0.471538V3.23656C87.5082 3.36568 87.422 3.4498 87.2929 3.4498H81.4428C81.3587 3.4498 81.3154 3.49304 81.3154 3.57892V5.78659C81.3154 5.87247 81.3587 5.91394 81.4428 5.91394H86.2434C86.3726 5.91394 86.4567 5.99982 86.4567 6.12894V8.82867C86.4567 8.9575 86.3726 9.04367 86.2434 9.04367H81.4428C81.3587 9.04367 81.3154 9.08661 81.3154 9.17103V11.5075C81.3154 11.5937 81.3587 11.6349 81.4428 11.6349H87.2929C87.422 11.6349 87.5082 11.7211 87.5082 11.8499V14.6134C87.5082 14.7423 87.422 14.8284 87.2929 14.8284H77.7572C77.6298 14.8284 77.5439 14.7423 77.5439 14.6134V0.471538Z" fill="#121212"/>
<path d="M176.379 12.6002H179.423C180.836 12.6002 181.629 11.7863 181.629 10.5646C181.629 9.36368 180.836 8.54984 179.423 8.54984H176.379C176.293 8.54984 176.25 8.59279 176.25 8.67896V12.4711C176.25 12.5572 176.293 12.6002 176.379 12.6002ZM179.294 6.32159C180.579 6.32159 181.372 5.5507 181.372 4.4151C181.372 3.25715 180.579 2.48626 179.294 2.48626H176.379C176.293 2.48626 176.25 2.5295 176.25 2.61538V6.19247C176.25 6.27865 176.293 6.32159 176.379 6.32159H179.294ZM173.723 0.471538C173.723 0.344184 173.809 0.258301 173.938 0.258301H179.357C182.443 0.258301 183.9 1.80155 183.9 4.13657C183.9 5.78659 183.129 6.72954 182.207 7.2216V7.26454C183.107 7.6069 184.158 8.76485 184.158 10.5422C184.158 13.4364 182.336 14.8284 179.144 14.8284H173.938C173.809 14.8284 173.723 14.7423 173.723 14.6134V0.471538Z" fill="#121212"/>
<path d="M221.429 14.8284C221.3 14.8284 221.214 14.7425 221.214 14.6134V3.72863C221.214 3.64274 221.171 3.60127 221.087 3.60127H217.508C217.379 3.60127 217.293 3.51539 217.293 3.38627V0.471538C217.293 0.344184 217.379 0.258301 217.508 0.258301H228.694C228.821 0.258301 228.907 0.344184 228.907 0.471538V3.38627C228.907 3.51539 228.821 3.60127 228.694 3.60127H225.115C225.029 3.60127 224.986 3.64274 224.986 3.72863V14.6134C224.986 14.7425 224.9 14.8284 224.772 14.8284H221.429Z" fill="#121212"/>
<path d="M154.746 9.68564H150.559C150.498 9.68564 150.521 9.63034 150.524 9.62093C150.527 9.61181 152.486 3.62853 152.624 3.20705C152.629 3.19176 152.636 3.16146 152.653 3.16146C152.669 3.16146 152.676 3.19176 152.681 3.20705C152.819 3.62853 154.778 9.61181 154.781 9.62093C154.784 9.63034 154.806 9.68564 154.746 9.68564ZM158.639 14.613L153.583 0.473203C153.54 0.344966 153.476 0.258789 153.326 0.258789H151.979C151.829 0.258789 151.765 0.344966 151.721 0.473203L146.666 14.613C146.623 14.7416 146.687 14.8272 146.816 14.8272H148.488C148.616 14.8272 148.702 14.763 148.766 14.613L149.857 11.5936C149.872 11.5589 149.888 11.5283 149.958 11.5283H155.347C155.417 11.5283 155.433 11.5589 155.448 11.5936L156.539 14.613C156.603 14.763 156.689 14.8272 156.817 14.8272H158.489C158.618 14.8272 158.682 14.7416 158.639 14.613Z" fill="#121212"/>
<path d="M7.42619 35.4821L6.12294 31.4539H6.07206L4.76881 35.4821H7.42619ZM4.83646 28.4409C4.86999 28.3391 4.93764 28.2715 5.05646 28.2715H7.18913C7.30795 28.2715 7.3756 28.3391 7.40913 28.4409L11.3021 39.6125C11.3362 39.7142 11.3021 39.7819 11.1839 39.7819H8.98326C8.86503 39.7819 8.79738 39.7307 8.76326 39.6125L8.10355 37.598H4.0744L3.43145 39.6125C3.39762 39.7307 3.32998 39.7819 3.21115 39.7819H0.994074C0.875838 39.7819 0.84172 39.7142 0.875838 39.6125L4.83646 28.4409Z" fill="#121212"/>
<path d="M12.3457 34.0259C12.3457 32.3165 12.4134 31.6732 12.6675 30.8776C13.2595 29.0159 14.8507 28.085 16.899 28.085C19.0484 28.085 20.4537 29.1511 20.9952 30.5394C21.0464 30.6406 21.0293 30.7423 20.9275 30.7929L19.1164 31.555C18.9978 31.5885 18.9131 31.555 18.8796 31.4703C18.4225 30.6915 17.8469 30.2853 16.899 30.2853C15.9175 30.2853 15.3078 30.7762 15.0537 31.5718C14.9184 31.9782 14.8678 32.5194 14.8678 34.0259C14.8678 35.5327 14.9184 36.0912 15.0537 36.4974C15.3078 37.293 15.934 37.7671 16.9325 37.7671C17.7963 37.7671 18.5408 37.3436 18.7778 36.5821C18.8625 36.2942 18.9131 35.9389 18.9131 35.448C18.9131 35.3803 18.8796 35.3462 18.8113 35.3462H17.2543C17.1525 35.3462 17.0849 35.2786 17.0849 35.1768V33.5521C17.0849 33.4503 17.1525 33.3827 17.2543 33.3827H21.2152C21.317 33.3827 21.3846 33.4503 21.3846 33.5521V34.5C21.3846 35.5159 21.2999 36.4639 21.097 37.0897C20.5214 38.9345 18.9302 39.9674 16.899 39.9674C14.8507 39.9674 13.2595 39.0362 12.6675 37.1745C12.4134 36.3789 12.3457 35.7359 12.3457 34.0259Z" fill="#121212"/>
<path d="M23.4795 28.4409C23.4795 28.3391 23.5471 28.2715 23.6483 28.2715H31.0284C31.1301 28.2715 31.1978 28.3391 31.1978 28.4409V30.2521C31.1978 30.3533 31.1301 30.4209 31.0284 30.4209H26.0692C26.0016 30.4209 25.9675 30.455 25.9675 30.5227V32.8077C25.9675 32.8753 26.0016 32.9095 26.0692 32.9095H30.1993C30.3007 32.9095 30.3684 32.9771 30.3684 33.0789V34.873C30.3684 34.9742 30.3007 35.0418 30.1993 35.0418H26.0692C26.0016 35.0418 25.9675 35.076 25.9675 35.1436V37.5304C25.9675 37.598 26.0016 37.6322 26.0692 37.6322H31.0284C31.1301 37.6322 31.1978 37.6998 31.1978 37.801V39.6122C31.1978 39.7139 31.1301 39.7819 31.0284 39.7819H23.6483C23.5471 39.7819 23.4795 39.7139 23.4795 39.6122V28.4409Z" fill="#121212"/>
<path d="M33.3105 28.4409C33.3105 28.3391 33.3782 28.2715 33.4794 28.2715H35.5109C35.6297 28.2715 35.7309 28.3224 35.7985 28.4409L39.8609 35.6851H39.9456V28.4409C39.9456 28.3391 40.0133 28.2715 40.115 28.2715H42.0277C42.1294 28.2715 42.1971 28.3391 42.1971 28.4409V39.6122C42.1971 39.7139 42.1294 39.7819 42.0277 39.7819H40.0133C39.878 39.7819 39.7933 39.7307 39.7256 39.6122L35.6462 32.3845H35.5617V39.6122C35.5617 39.7139 35.4941 39.7819 35.3923 39.7819H33.4794C33.3782 39.7819 33.3105 39.7139 33.3105 39.6122V28.4409Z" fill="#121212"/>
<path d="M44.3682 34.0259C44.3682 32.2488 44.4358 31.6562 44.6899 30.9115C45.2991 29.0326 46.772 28.085 48.7861 28.085C50.7326 28.085 52.1544 29.0326 52.7974 30.6406C52.8485 30.7253 52.8144 30.81 52.7127 30.8438L50.8679 31.6732C50.7662 31.7238 50.682 31.6903 50.6309 31.5885C50.3097 30.8438 49.7676 30.2853 48.8032 30.2853C47.9058 30.2853 47.3302 30.7594 47.0761 31.555C46.9408 31.9782 46.8902 32.3841 46.8902 34.0259C46.8902 35.6683 46.9408 36.0741 47.0761 36.4974C47.3302 37.293 47.9058 37.7671 48.8032 37.7671C49.7676 37.7671 50.3097 37.2083 50.6309 36.4639C50.682 36.3621 50.7662 36.3283 50.8679 36.3789L52.7127 37.2083C52.8144 37.2421 52.8485 37.3268 52.7974 37.4118C52.1544 39.0192 50.7326 39.9674 48.7861 39.9674C46.772 39.9674 45.2991 39.0192 44.6899 37.1403C44.4358 36.3959 44.3682 35.8036 44.3682 34.0259Z" fill="#121212"/>
<path d="M57.2937 39.7814C57.1925 39.7814 57.1249 39.7137 57.1249 39.612V35.194L53.7225 28.4404C53.6884 28.3557 53.7225 28.271 53.8408 28.271H56.0414C56.1599 28.271 56.2446 28.3219 56.2952 28.4404L58.377 32.6384H58.4281L60.5099 28.4404C60.5608 28.3219 60.6455 28.271 60.7638 28.271H62.8967C63.015 28.271 63.0661 28.3557 63.015 28.4404L59.6129 35.194V39.612C59.6129 39.7137 59.5449 39.7814 59.4437 39.7814H57.2937Z" fill="#121212"/>
<path d="M77.7598 28.4409C77.7598 28.3391 77.8274 28.2715 77.9286 28.2715H85.3087C85.4104 28.2715 85.4784 28.3391 85.4784 28.4409V30.2521C85.4784 30.3533 85.4104 30.4209 85.3087 30.4209H80.3495C80.2818 30.4209 80.2477 30.455 80.2477 30.5227V32.943C80.2477 33.0106 80.2818 33.0448 80.3495 33.0448H84.4795C84.581 33.0448 84.6487 33.1124 84.6487 33.2142V35.0083C84.6487 35.1098 84.581 35.1774 84.4795 35.1774H80.3495C80.2818 35.1774 80.2477 35.2115 80.2477 35.2792V39.6122C80.2477 39.7139 80.1801 39.7819 80.0789 39.7819H77.9286C77.8274 39.7819 77.7598 39.7139 77.7598 39.6122V28.4409Z" fill="#121212"/>
<path d="M93.3567 36.4976C93.492 36.0914 93.5432 35.5332 93.5432 34.0261C93.5432 32.5199 93.492 31.9614 93.3567 31.5552C93.1032 30.7599 92.4935 30.2855 91.5455 30.2855C90.5982 30.2855 89.9885 30.7599 89.7343 31.5552C89.599 31.9614 89.5484 32.5199 89.5484 34.0261C89.5484 35.5332 89.599 36.0914 89.7343 36.4976C89.9885 37.2932 90.5982 37.7673 91.5455 37.7673C92.4935 37.7673 93.1032 37.2932 93.3567 36.4976ZM87.3481 37.1749C87.094 36.3793 87.0264 35.7361 87.0264 34.0261C87.0264 32.3167 87.094 31.6737 87.3481 30.8781C87.9402 29.0163 89.5314 28.0854 91.5455 28.0854C93.5602 28.0854 95.1509 29.0163 95.7435 30.8781C95.9976 31.6737 96.0653 32.3167 96.0653 34.0261C96.0653 35.7361 95.9976 36.3793 95.7435 37.1749C95.1509 39.0367 93.5602 39.9676 91.5455 39.9676C89.5314 39.9676 87.9402 39.0367 87.3481 37.1749Z" fill="#121212"/>
<path d="M104.39 31.8428C104.39 30.9795 103.781 30.4207 102.833 30.4207H100.802C100.734 30.4207 100.7 30.4548 100.7 30.5225V33.1799C100.7 33.2475 100.734 33.2816 100.802 33.2816H102.833C103.781 33.2816 104.39 32.7225 104.39 31.8428ZM104.576 39.7814C104.424 39.7814 104.373 39.7302 104.322 39.612L102.342 35.3969H100.802C100.734 35.3969 100.7 35.4311 100.7 35.4987V39.612C100.7 39.7137 100.632 39.7814 100.531 39.7814H98.3807C98.2796 39.7814 98.2119 39.7137 98.2119 39.612V28.4404C98.2119 28.3386 98.2796 28.271 98.3807 28.271H102.968C105.321 28.271 106.878 29.744 106.878 31.8428C106.878 33.3152 106.1 34.4831 104.83 35.0416L107.098 39.5784C107.149 39.6796 107.098 39.7814 106.98 39.7814H104.576Z" fill="#121212"/>
<path d="M124.787 39.7814C124.686 39.7814 124.618 39.7137 124.618 39.612V30.5901C124.618 30.5225 124.584 30.4887 124.516 30.4887H121.605C121.503 30.4887 121.436 30.4207 121.436 30.3195V28.4404C121.436 28.3386 121.503 28.271 121.605 28.271H130.119C130.22 28.271 130.288 28.3386 130.288 28.4404V30.3195C130.288 30.4207 130.22 30.4887 130.119 30.4887H127.208C127.14 30.4887 127.106 30.5225 127.106 30.5901V39.612C127.106 39.7137 127.038 39.7814 126.937 39.7814H124.787Z" fill="#121212"/>
<path d="M132.038 28.4409C132.038 28.3391 132.106 28.2715 132.207 28.2715H134.357C134.458 28.2715 134.526 28.3391 134.526 28.4409V32.7571C134.526 32.8248 134.56 32.8589 134.628 32.8589H138.385C138.453 32.8589 138.487 32.8248 138.487 32.7571V28.4409C138.487 28.3391 138.555 28.2715 138.656 28.2715H140.806C140.908 28.2715 140.975 28.3391 140.975 28.4409V39.6122C140.975 39.7139 140.908 39.7819 140.806 39.7819H138.656C138.555 39.7819 138.487 39.7139 138.487 39.6122V35.1774C138.487 35.1098 138.453 35.076 138.385 35.076H134.628C134.56 35.076 134.526 35.1098 134.526 35.1774V39.6122C134.526 39.7139 134.458 39.7819 134.357 39.7819H132.207C132.106 39.7819 132.038 39.7139 132.038 39.6122V28.4409Z" fill="#121212"/>
<path d="M143.441 28.4409C143.441 28.3391 143.509 28.2715 143.61 28.2715H150.99C151.092 28.2715 151.16 28.3391 151.16 28.4409V30.2521C151.16 30.3533 151.092 30.4209 150.99 30.4209H146.031C145.963 30.4209 145.929 30.455 145.929 30.5227V32.8077C145.929 32.8753 145.963 32.9095 146.031 32.9095H150.161C150.263 32.9095 150.33 32.9771 150.33 33.0789V34.873C150.33 34.9742 150.263 35.0418 150.161 35.0418H146.031C145.963 35.0418 145.929 35.076 145.929 35.1436V37.5304C145.929 37.598 145.963 37.6322 146.031 37.6322H150.99C151.092 37.6322 151.16 37.6998 151.16 37.801V39.6122C151.16 39.7139 151.092 39.7819 150.99 39.7819H143.61C143.509 39.7819 143.441 39.7139 143.441 39.6122V28.4409Z" fill="#121212"/>
<path d="M166.479 28.4409C166.479 28.3391 166.546 28.2715 166.647 28.2715H174.028C174.129 28.2715 174.197 28.3391 174.197 28.4409V30.2521C174.197 30.3533 174.129 30.4209 174.028 30.4209H169.068C169.001 30.4209 168.966 30.455 168.966 30.5227V32.943C168.966 33.0106 169.001 33.0448 169.068 33.0448H173.198C173.3 33.0448 173.367 33.1124 173.367 33.2142V35.0083C173.367 35.1098 173.3 35.1774 173.198 35.1774H169.068C169.001 35.1774 168.966 35.2115 168.966 35.2792V39.6122C168.966 39.7139 168.899 39.7819 168.798 39.7819H166.647C166.546 39.7819 166.479 39.7139 166.479 39.6122V28.4409Z" fill="#121212"/>
<path d="M176.079 35.5498V28.4409C176.079 28.3391 176.147 28.2715 176.249 28.2715H178.398C178.5 28.2715 178.568 28.3391 178.568 28.4409V35.6174C178.568 36.9886 179.329 37.7675 180.497 37.7675C181.648 37.7675 182.41 36.9886 182.41 35.6174V28.4409C182.41 28.3391 182.478 28.2715 182.579 28.2715H184.729C184.83 28.2715 184.898 28.3391 184.898 28.4409V35.5498C184.898 38.4107 183.07 39.9678 180.497 39.9678C177.907 39.9678 176.079 38.4107 176.079 35.5498Z" fill="#121212"/>
<path d="M189.979 39.7814C189.877 39.7814 189.809 39.7137 189.809 39.612V30.5901C189.809 30.5225 189.775 30.4887 189.708 30.4887H186.796C186.695 30.4887 186.627 30.4207 186.627 30.3195V28.4404C186.627 28.3386 186.695 28.271 186.796 28.271H195.311C195.412 28.271 195.479 28.3386 195.479 28.4404V30.3195C195.479 30.4207 195.412 30.4887 195.311 30.4887H192.399C192.331 30.4887 192.297 30.5225 192.297 30.5901V39.612C192.297 39.7137 192.23 39.7814 192.128 39.7814H189.979Z" fill="#121212"/>
<path d="M197.206 35.5498V28.4409C197.206 28.3391 197.274 28.2715 197.375 28.2715H199.525C199.627 28.2715 199.695 28.3391 199.695 28.4409V35.6174C199.695 36.9886 200.456 37.7675 201.624 37.7675C202.775 37.7675 203.537 36.9886 203.537 35.6174V28.4409C203.537 28.3391 203.605 28.2715 203.706 28.2715H205.856C205.957 28.2715 206.025 28.3391 206.025 28.4409V35.5498C206.025 38.4107 204.197 39.9678 201.624 39.9678C199.034 39.9678 197.206 38.4107 197.206 35.5498Z" fill="#121212"/>
<path d="M214.612 31.8428C214.612 30.9795 214.002 30.4207 213.055 30.4207H211.023C210.956 30.4207 210.922 30.4548 210.922 30.5225V33.1799C210.922 33.2475 210.956 33.2816 211.023 33.2816H213.055C214.002 33.2816 214.612 32.7225 214.612 31.8428ZM214.798 39.7814C214.646 39.7814 214.595 39.7302 214.544 39.612L212.564 35.3969H211.023C210.956 35.3969 210.922 35.4311 210.922 35.4987V39.612C210.922 39.7137 210.854 39.7814 210.753 39.7814H208.602C208.501 39.7814 208.434 39.7137 208.434 39.612V28.4404C208.434 28.3386 208.501 28.271 208.602 28.271H213.19C215.542 28.271 217.1 29.744 217.1 31.8428C217.1 33.3152 216.322 34.4831 215.052 35.0416L217.32 39.5784C217.371 39.6796 217.32 39.7814 217.201 39.7814H214.798Z" fill="#121212"/>
<path d="M219.227 28.4409C219.227 28.3391 219.294 28.2715 219.395 28.2715H226.776C226.877 28.2715 226.945 28.3391 226.945 28.4409V30.2521C226.945 30.3533 226.877 30.4209 226.776 30.4209H221.816C221.749 30.4209 221.715 30.455 221.715 30.5227V32.8077C221.715 32.8753 221.749 32.9095 221.816 32.9095H225.946C226.048 32.9095 226.115 32.9771 226.115 33.0789V34.873C226.115 34.9742 226.048 35.0418 225.946 35.0418H221.816C221.749 35.0418 221.715 35.076 221.715 35.1436V37.5304C221.715 37.598 221.749 37.6322 221.816 37.6322H226.776C226.877 37.6322 226.945 37.6998 226.945 37.801V39.6122C226.945 39.7139 226.877 39.7819 226.776 39.7819H219.395C219.294 39.7819 219.227 39.7139 219.227 39.6122V28.4409Z" fill="#121212"/>
</svg>
