<svg width="32" height="32" viewBox="0 0 32 32" fill="none" xmlns="http://www.w3.org/2000/svg">
<path d="M16.0352 32.0094H15.9648C7.1619 32.0094 0 24.8454 0 16.0399V15.9695C0 7.164 7.1619 0 15.9648 0H16.0352C24.8381 0 32 7.164 32 15.9695V16.0399C32 24.8454 24.8381 32.0094 16.0352 32.0094ZM15.9648 1.08349C7.75873 1.08349 1.08317 7.761 1.08317 15.9695V16.0399C1.08317 24.2484 7.75873 30.9259 15.9648 30.9259H16.0352C24.2413 30.9259 30.9168 24.2484 30.9168 16.0399V15.9695C30.9168 7.761 24.2413 1.08349 16.0352 1.08349H15.9648Z" fill="#0B0B0B"/>
<rect x="7" y="10" width="18" height="11.7" rx="1" stroke="black" stroke-width="1.4"/>
<path d="M7 12.7L15.2572 16.0029C15.734 16.1936 16.266 16.1936 16.7428 16.0029L25 12.7" stroke="black" stroke-width="1.4"/>
</svg>
