<svg width="32" height="32" viewBox="0 0 32 32" fill="none" xmlns="http://www.w3.org/2000/svg">
<path d="M16.0361 0C24.8526 0 32 7.14972 32 15.9688V16.041C32 24.86 24.8526 32.0098 16.0361 32.0098H15.9639C7.14743 32.0098 0 24.86 0 16.041V15.9688C0 7.14972 7.14743 0 15.9639 0H16.0361ZM9 9.2998C8.54844 9.2998 8.13935 9.29845 7.80957 9.34277C7.45963 9.38982 7.09604 9.49967 6.79785 9.79785C6.49967 10.096 6.38982 10.4596 6.34277 10.8096C6.29845 11.1393 6.2998 11.5484 6.2998 12V19.7002C6.2998 20.1517 6.29844 20.5609 6.34277 20.8906C6.38983 21.2405 6.49969 21.6042 6.79785 21.9023C7.09602 22.2005 7.45967 22.3104 7.80957 22.3574C8.13934 22.4017 8.54845 22.4004 9 22.4004H23C23.4515 22.4004 23.8607 22.4017 24.1904 22.3574C24.5403 22.3104 24.904 22.2005 25.2021 21.9023C25.5003 21.6042 25.6102 21.2405 25.6572 20.8906C25.7016 20.5609 25.7002 20.1517 25.7002 19.7002V12C25.7002 11.5484 25.7015 11.1393 25.6572 10.8096C25.6102 10.4596 25.5003 10.096 25.2021 9.79785C24.904 9.49967 24.5404 9.38982 24.1904 9.34277C23.8607 9.29845 23.4516 9.2998 23 9.2998H9ZM24.2998 19.7002C24.2998 20.1913 24.2984 20.4893 24.2695 20.7041C24.2563 20.8028 24.2406 20.8557 24.2295 20.8828C24.2207 20.9042 24.2147 20.9093 24.2119 20.9121C24.2091 20.9149 24.2038 20.92 24.1826 20.9287C24.1555 20.9398 24.1028 20.9564 24.0039 20.9697C23.7891 20.9986 23.4911 21 23 21H9C8.50889 21 8.21091 20.9986 7.99609 20.9697C7.8972 20.9564 7.84446 20.9398 7.81738 20.9287C7.79622 20.92 7.7909 20.9149 7.78809 20.9121C7.78529 20.9093 7.77932 20.9042 7.77051 20.8828C7.75941 20.8557 7.74374 20.8028 7.73047 20.7041C7.70159 20.4893 7.7002 20.1913 7.7002 19.7002V13.7344L14.9971 16.6533C15.6407 16.9108 16.3593 16.9108 17.0029 16.6533L24.2998 13.7344V19.7002ZM23 10.7002C23.4911 10.7002 23.7891 10.7016 24.0039 10.7305C24.1025 10.7437 24.1555 10.7594 24.1826 10.7705C24.204 10.7793 24.2091 10.7853 24.2119 10.7881C24.2147 10.7909 24.2207 10.796 24.2295 10.8174C24.2406 10.8445 24.2563 10.8975 24.2695 10.9961C24.2984 11.2109 24.2998 11.5089 24.2998 12V12.2256L16.4824 15.3535C16.1728 15.4772 15.8272 15.4772 15.5176 15.3535L7.7002 12.2256V12C7.7002 11.5089 7.7016 11.2109 7.73047 10.9961C7.74372 10.8975 7.75941 10.8445 7.77051 10.8174C7.77932 10.796 7.78529 10.7909 7.78809 10.7881C7.79088 10.7853 7.79597 10.7793 7.81738 10.7705C7.84454 10.7594 7.89753 10.7437 7.99609 10.7305C8.21092 10.7016 8.50887 10.7002 9 10.7002H23Z" fill="#0B0B0B"/>
</svg>
