<svg width="50" height="51" viewBox="0 0 50 51" fill="none" xmlns="http://www.w3.org/2000/svg">
<g id="STRZA&#197;&#129;KI ico 2" clip-path="url(#clip0_1633_2041)">
<g id="Group">
<g id="Artboard8">
<g id="Group_2">
<g id="Group_3">
<path id="Vector" fill-rule="evenodd" clip-rule="evenodd" d="M8.03917 31.8732L10.9347 33.9555C11.3934 34.2857 12.0337 34.1806 12.3634 33.7214C12.6931 33.2627 12.588 32.6219 12.1293 32.2922L6.0037 27.891L1.60299 34.0157C1.27329 34.4749 1.37843 35.1152 1.83713 35.4449C2.29584 35.775 2.93608 35.6699 3.26577 35.2112L5.80301 31.6844C8.41188 39.7773 16.0139 45.6387 24.9682 45.6387C35.2317 45.6387 43.7129 37.9458 44.9505 28.0177C45.0221 27.4567 44.6208 26.9445 44.0617 26.8747C43.5027 26.8045 42.9866 27.203 42.9197 27.7639C41.8064 36.6815 34.19 43.5902 24.9682 43.5902C17.2276 43.5902 10.6146 38.717 8.03917 31.8732Z" fill="#121212"/>
</g>
<g id="Group_4">
<path id="Vector_2" fill-rule="evenodd" clip-rule="evenodd" d="M44.1382 19.319C41.5246 11.2261 33.9273 5.36475 24.9682 5.36475C14.7095 5.36475 6.22831 13.0576 4.99076 22.9857C4.91909 23.5467 5.31566 24.0589 5.87949 24.1292C6.43853 24.1989 6.94981 23.8004 7.02148 23.2395C8.1348 14.3219 15.7512 7.41316 24.9682 7.41316C32.7136 7.41316 39.3218 12.2864 41.902 19.1302L39.0065 17.0479C38.5477 16.7182 37.9075 16.8228 37.5778 17.282C37.2481 17.7412 37.3532 18.3815 37.8119 18.7112L43.9328 23.1128L48.3382 16.9877C48.6679 16.529 48.5628 15.8882 48.1041 15.5585C47.6454 15.2288 47.0003 15.3335 46.6706 15.7927L44.1382 19.319Z" fill="#121212"/>
</g>
</g>
</g>
</g>
</g>
<defs>
<clipPath id="clip0_1633_2041">
<rect width="50" height="50" fill="white" transform="translate(0 0.501709)"/>
</clipPath>
</defs>
</svg>
